<svg xmlns="http://www.w3.org/2000/svg" width="320.783" height="111.926" viewBox="0 0 320.783 111.926">
  <g id="logo_smarttrip" data-name="logo smarttrip" transform="translate(-799.863 -1931.485)">
    <g id="g254" transform="translate(820.172 1932.456)">
      <path id="path256" d="M0,0A13.27,13.27,0,0,0-5.3-.971,13.27,13.27,0,0,0-10.6,0a15.306,15.306,0,0,0-6.981,5.376,14.3,14.3,0,0,0-2.725,8.661V31.36a14.487,14.487,0,0,0,1.083,5.6,15.455,15.455,0,0,0,2.949,4.629A12.888,12.888,0,0,0-10.6,45.4a13.247,13.247,0,0,0,5.3.971,5.007,5.007,0,0,1,3.771,1.605A5.291,5.291,0,0,1,0,51.744V95.873a5.164,5.164,0,0,1-1.531,3.733A5.062,5.062,0,0,1-5.3,101.174a5.1,5.1,0,0,1-3.733-1.568A5.1,5.1,0,0,1-10.6,95.873v-21.8a1.317,1.317,0,0,0-.448-1.008A1.5,1.5,0,0,0-12.1,72.65h-6.795a1.254,1.254,0,0,0-1.419,1.419v21.8a14.3,14.3,0,0,0,2.725,8.661A15.324,15.324,0,0,0-10.6,109.91a18.92,18.92,0,0,0,2.576.709,13.937,13.937,0,0,0,2.725.261,13.937,13.937,0,0,0,2.725-.261A18.92,18.92,0,0,0,0,109.91a15.324,15.324,0,0,0,6.981-5.376,14.3,14.3,0,0,0,2.725-8.661V51.744a14.932,14.932,0,0,0-1.045-5.6,14.023,14.023,0,0,0-2.912-4.555A14.747,14.747,0,0,0,0,37.707a13.27,13.27,0,0,0-5.3-.971,5.1,5.1,0,0,1-3.733-1.568A5.184,5.184,0,0,1-10.6,31.36V14.037a5.222,5.222,0,0,1,1.568-3.771A5.038,5.038,0,0,1-5.3,8.661a5,5,0,0,1,3.771,1.605A5.289,5.289,0,0,1,0,14.037v8.736a1.313,1.313,0,0,0,.448,1.008,1.5,1.5,0,0,0,1.045.411H8.288a1.282,1.282,0,0,0,1.419-1.269V14.037A14.3,14.3,0,0,0,6.981,5.376,15.306,15.306,0,0,0,0,0" fill="#2f2f30"/>
    </g>
    <g id="g258" transform="translate(884.386 1936.339)">
      <path id="path260" d="M0,0A15.545,15.545,0,0,0-4.753-3.211a14.463,14.463,0,0,0-5.875-1.195A14.731,14.731,0,0,0-16.153-3.36,14.968,14.968,0,0,0-20.795-.448,14.9,14.9,0,0,0-25.424-3.36a14.843,14.843,0,0,0-5.537-1.045,13.8,13.8,0,0,0-5.464.971,1.347,1.347,0,0,0-1.344-.9h-6.807a1.5,1.5,0,0,0-1.045.411,1.313,1.313,0,0,0-.448,1.008V105.505a1.434,1.434,0,0,0,.448,1.045,1.432,1.432,0,0,0,1.045.448h6.795a1.317,1.317,0,0,0,1.008-.448,1.5,1.5,0,0,0,.411-1.045V10.677a5.222,5.222,0,0,1,1.568-3.771A5.122,5.122,0,0,1-30.987,5.3a5.04,5.04,0,0,1,3.733,1.605,5.222,5.222,0,0,1,1.568,3.771v94.9A1.254,1.254,0,0,0-24.267,107h7.019a1.377,1.377,0,0,0,.933-.485,1.436,1.436,0,0,0,.336-.933v-94.9a5.222,5.222,0,0,1,1.568-3.771A5.038,5.038,0,0,1-10.677,5.3,5.122,5.122,0,0,1-6.869,6.907,5.222,5.222,0,0,1-5.3,10.677v94.9A1.258,1.258,0,0,0-3.871,107H2.975a1.326,1.326,0,0,0,.983-.373,1.542,1.542,0,0,0,.448-.9V10.6A14.446,14.446,0,0,0,3.211,4.741,15.331,15.331,0,0,0,0,0" fill="#2f2f30"/>
    </g>
    <g id="g262" transform="translate(917.762 1995.774)">
      <path id="path264" d="M0,0H-10.677V-49.205a5.184,5.184,0,0,1,1.568-3.808,5.1,5.1,0,0,1,3.733-1.568,5.184,5.184,0,0,1,3.808,1.568A5.184,5.184,0,0,1,0-49.205ZM5.264-59.883A15.808,15.808,0,0,0,.485-63.093a14.424,14.424,0,0,0-5.861-1.195,14.424,14.424,0,0,0-5.861,1.195,15.331,15.331,0,0,0-4.741,3.211A15.207,15.207,0,0,0-19.189-55.1a14.707,14.707,0,0,0-1.195,5.9V46.069a1.5,1.5,0,0,0,.411,1.045,1.313,1.313,0,0,0,1.008.448h6.795a1.432,1.432,0,0,0,1.045-.448,1.432,1.432,0,0,0,.448-1.045V9.707H0V46.069a1.5,1.5,0,0,0,.411,1.045,1.313,1.313,0,0,0,1.008.448H8.213a1.347,1.347,0,0,0,1.493-1.344V-49.205a14.707,14.707,0,0,0-1.195-5.9,14.889,14.889,0,0,0-3.248-4.779" fill="#2f2f30"/>
    </g>
    <g id="g266" transform="translate(957.41 1989.95)">
      <path id="path268" d="M0,0A5.274,5.274,0,0,1-1.568,3.883,5.274,5.274,0,0,1-5.451,5.451h-5.376V-47.339h5.376A5.3,5.3,0,0,1-1.568-45.7,4.941,4.941,0,0,1,0-41.963ZM0-56.224l-2.165-.6a7.443,7.443,0,0,0-2.315-.3H-19.264a1.08,1.08,0,0,0-.971.448,1.309,1.309,0,0,0-.373.971l-.075,107.669a1.432,1.432,0,0,0,.448,1.045,1.993,1.993,0,0,0,.971.373h6.944a1.311,1.311,0,0,0,.971-.373,1.693,1.693,0,0,0,.523-.9V15.307h5.376a5.274,5.274,0,0,1,3.883,1.568A5.031,5.031,0,0,1,0,20.683v31.36a1.08,1.08,0,0,0,.448.971,1.356,1.356,0,0,0,.971.448H8.363a1.311,1.311,0,0,0,.971-.373,1.705,1.705,0,0,0,.523-.971V20.683a16.54,16.54,0,0,0-1.045-5.6,15.1,15.1,0,0,0-2.987-4.7,15.916,15.916,0,0,0,1.717-2.2,13.889,13.889,0,0,0,1.269-2.5A15.9,15.9,0,0,0,9.856,0V-41.963A14.77,14.77,0,0,0,7.168-50.7,15.726,15.726,0,0,0,0-56.224" fill="#2f2f30"/>
    </g>
    <g id="g270" transform="translate(1026.116 1932.829)">
      <path id="path272" d="M0,0H-52.056A1.5,1.5,0,0,0-53.1.411a1.313,1.313,0,0,0-.448,1.008V8.213A1.432,1.432,0,0,0-53.1,9.259a1.434,1.434,0,0,0,1.045.448h8.736v99.382a1.258,1.258,0,0,0,1.432,1.419h6.844a1.258,1.258,0,0,0,1.431-1.419V9.707h15.171v99.382a1.258,1.258,0,0,0,1.431,1.419h6.845a1.263,1.263,0,0,0,1.431-1.419V9.707H0a1.432,1.432,0,0,0,1.045-.448,1.432,1.432,0,0,0,.448-1.045V1.419A1.313,1.313,0,0,0,1.045.411,1.5,1.5,0,0,0,0,0" fill="#2f2f30"/>
    </g>
    <g id="g274" transform="translate(1054.564 1989.95)">
      <path id="path276" d="M0,0A5.274,5.274,0,0,1-1.568,3.883,5.274,5.274,0,0,1-5.451,5.451h-5.376V-47.339h5.376A5.3,5.3,0,0,1-1.568-45.7,4.941,4.941,0,0,1,0-41.963ZM0-56.224l-2.165-.6a7.443,7.443,0,0,0-2.315-.3H-19.264a1.08,1.08,0,0,0-.971.448,1.309,1.309,0,0,0-.373.971l-.075,107.669a1.432,1.432,0,0,0,.448,1.045,1.989,1.989,0,0,0,.971.373h6.944a1.311,1.311,0,0,0,.971-.373,1.693,1.693,0,0,0,.523-.9V15.307h5.376a5.274,5.274,0,0,1,3.883,1.568A5.031,5.031,0,0,1,0,20.683v31.36a1.08,1.08,0,0,0,.448.971,1.356,1.356,0,0,0,.971.448H8.363a1.311,1.311,0,0,0,.971-.373,1.705,1.705,0,0,0,.523-.971V20.683a16.54,16.54,0,0,0-1.045-5.6,15.1,15.1,0,0,0-2.987-4.7,15.916,15.916,0,0,0,1.717-2.2,13.889,13.889,0,0,0,1.269-2.5A15.9,15.9,0,0,0,9.856,0V-41.963A14.77,14.77,0,0,0,7.168-50.7,15.726,15.726,0,0,0,0-56.224" fill="#2f2f30"/>
    </g>
    <g id="g278" transform="translate(1080.698 1932.829)">
      <path id="path280" d="M0,0H-6.795A1.254,1.254,0,0,0-8.213,1.419v107.6A1.5,1.5,0,0,0-7.8,110.06a1.313,1.313,0,0,0,1.008.448H0a1.432,1.432,0,0,0,1.045-.448,1.434,1.434,0,0,0,.448-1.045V1.419A1.313,1.313,0,0,0,1.045.411,1.5,1.5,0,0,0,0,0" fill="#2f2f30"/>
    </g>
    <g id="g282" transform="translate(1110.938 1990.472)">
      <path id="path284" d="M0,0A5.184,5.184,0,0,1-1.568,3.808,5.1,5.1,0,0,1-5.3,5.376h-5.3V-47.936h5.3a5.1,5.1,0,0,1,3.733,1.568A5.1,5.1,0,0,1,0-42.635ZM6.981-51.3A15.306,15.306,0,0,0,0-56.672a15.377,15.377,0,0,0-2.165-.6q-1.12-.224-2.315-.373H-19.04a1.451,1.451,0,0,0-.9.485,1.44,1.44,0,0,0-.373,1.008V51.371a1.494,1.494,0,0,0,.411,1.045,1.313,1.313,0,0,0,1.008.448H-12.1a1.432,1.432,0,0,0,1.045-.448,1.432,1.432,0,0,0,.448-1.045V15.083h5.3a2.558,2.558,0,0,0,.821-.075,12.8,12.8,0,0,0,4.48-.9A15.225,15.225,0,0,0,6.981,8.7,14.461,14.461,0,0,0,9.707,0V-42.635A14.3,14.3,0,0,0,6.981-51.3" fill="#2f2f30"/>
    </g>
  </g>
</svg>
